<svg width="20" height="20" viewBox="0 0 20 20" fill="none" xmlns="http://www.w3.org/2000/svg">
<path d="M15.001 8.95834C14.6593 8.95834 14.376 8.675 14.376 8.33334V6.66667C14.376 4.04167 13.6343 2.29167 10.001 2.29167C6.36767 2.29167 5.62601 4.04167 5.62601 6.66667V8.33334C5.62601 8.675 5.34267 8.95834 5.00101 8.95834C4.65934 8.95834 4.37601 8.675 4.37601 8.33334V6.66667C4.37601 4.25 4.95934 1.04167 10.001 1.04167C15.0427 1.04167 15.626 4.25 15.626 6.66667V8.33334C15.626 8.675 15.3427 8.95834 15.001 8.95834Z" fill="#292929"/>
<path d="M10.001 16.0417C8.50933 16.0417 7.29266 14.825 7.29266 13.3333C7.29266 11.8417 8.50933 10.625 10.001 10.625C11.4927 10.625 12.7093 11.8417 12.7093 13.3333C12.7093 14.825 11.4927 16.0417 10.001 16.0417ZM10.001 11.875C9.201 11.875 8.54266 12.5333 8.54266 13.3333C8.54266 14.1333 9.201 14.7917 10.001 14.7917C10.801 14.7917 11.4593 14.1333 11.4593 13.3333C11.4593 12.5333 10.801 11.875 10.001 11.875Z" fill="#292929"/>
<path d="M14.1677 18.9583H5.83433C2.15933 18.9583 1.04266 17.8417 1.04266 14.1667V12.5C1.04266 8.825 2.15933 7.70833 5.83433 7.70833H14.1677C17.8427 7.70833 18.9593 8.825 18.9593 12.5V14.1667C18.9593 17.8417 17.8427 18.9583 14.1677 18.9583ZM5.83433 8.95833C2.851 8.95833 2.29266 9.52499 2.29266 12.5V14.1667C2.29266 17.1417 2.851 17.7083 5.83433 17.7083H14.1677C17.151 17.7083 17.7093 17.1417 17.7093 14.1667V12.5C17.7093 9.52499 17.151 8.95833 14.1677 8.95833H5.83433Z" fill="#292929"/>
</svg>
